<svg xmlns="http://www.w3.org/2000/svg" viewBox="0 0 160 160" width="160" height="160"><defs><linearGradient id="h" x1="0" y1="0" x2="1" y2="1"><stop stop-color="#075f62"/><stop offset=".5" stop-color="#10aaa1"/><stop offset="1" stop-color="#063f48"/></linearGradient><linearGradient id="s" x1="0" y1="0" x2="0" y2="1"><stop stop-color="#18b8ad"/><stop offset="1" stop-color="#08726f"/></linearGradient><linearGradient id="g" x1="0" y1="0" x2="0" y2="1"><stop stop-color="#ffe16b"/><stop offset=".45" stop-color="#d69b16"/><stop offset="1" stop-color="#80520a"/></linearGradient></defs><path d="M80 13C62 25 52 47 50 76c-2 28 7 54 30 77 23-23 32-49 30-77-2-29-12-51-30-63Z" fill="url(#h)" stroke="#092f35" stroke-width="4"/><path d="M80 23C67 33 60 50 59 74h42c-1-24-8-41-21-51Z" fill="#075052" stroke="#062d31" stroke-width="2"/><rect x="76" y="8" width="8" height="126" rx="4" fill="#8b5524" stroke="#3c210e" stroke-width="2"/><circle cx="80" cy="9" r="7" fill="url(#g)" stroke="#5e3a08" stroke-width="2"/><path d="M84 14c16-4 28 1 40-2-7 10-19 15-40 11Z" fill="#087e7c" stroke="#053c40" stroke-width="2"/><path d="M58 39q22-9 44 0l-3 24q-19-6-38 0Z" fill="url(#s)" stroke="#063b42" stroke-width="3"/><path d="M53 69q27-9 54 0l-3 31q-24-9-48 0Z" fill="url(#s)" stroke="#063b42" stroke-width="3"/><g stroke="#5c3518" stroke-width="5" stroke-linecap="round"><path d="M52 38h56"/><path d="M47 68h66"/><path d="M45 102h70"/></g><g stroke="#e0aa2e" stroke-width="2" stroke-linecap="round"><path d="M52 37h56"/><path d="M47 67h66"/><path d="M45 101h70"/></g><g fill="url(#g)" stroke="#684008" stroke-width="1.5"><circle cx="52" cy="38" r="4"/><circle cx="108" cy="38" r="4"/><circle cx="47" cy="68" r="4"/><circle cx="113" cy="68" r="4"/><circle cx="45" cy="102" r="4"/><circle cx="115" cy="102" r="4"/></g><path d="M83 75c-11-3-16 4-11 10 4 5 16 1 16 9 0 7-12 9-17 4 1 11 19 13 25 2 5-10-3-18-13-16-5 1-6-3-1-4l7 2-2-6Z" fill="#e6f3c5" stroke="#0b5d59" stroke-width="1.5"/><path d="m85 75 7-6-2 7 6-2-6 7Z" fill="#e6f3c5"/><rect x="67" y="108" width="26" height="18" rx="3" fill="#4b321d" stroke="#d69b16" stroke-width="3"/><g stroke="#17130f" stroke-width="2"><path d="M71 112h18M71 117h18M76 109v15M84 109v15"/></g><circle cx="57" cy="113" r="6" fill="#25292d" stroke="#d69b16" stroke-width="3"/><circle cx="103" cy="113" r="6" fill="#25292d" stroke="#d69b16" stroke-width="3"/><path d="M80 132c-11-5-18 2-14 11 4 7 11 10 14 13 3-3 10-6 14-13 4-9-3-16-14-11Z" fill="#0ed2bb" stroke="#69430b" stroke-width="3"/><path d="m80 132-6 9 6-3 6 3Z" fill="#083d43"/><circle cx="76" cy="138" r="1.5" fill="#ffe76c"/><circle cx="84" cy="138" r="1.5" fill="#ffe76c"/><path d="m67 137-9-5 5 13m30-8 9-5-5 13" fill="none" stroke="#d69b16" stroke-width="4" stroke-linecap="round"/></svg>