<svg xmlns="http://www.w3.org/2000/svg" viewBox="0 0 160 200" width="160" height="200"><defs><linearGradient id="sail" x1="0" y1="0" x2="0" y2="1"><stop stop-color="#21dfcf"/><stop offset="1" stop-color="#07958e"/></linearGradient><linearGradient id="gold" x1="0" y1="0" x2="0" y2="1"><stop stop-color="#fff08a"/><stop offset=".42" stop-color="#f0b51d"/><stop offset="1" stop-color="#8b5007"/></linearGradient><linearGradient id="dragon" x1="0" y1="0" x2="0" y2="1"><stop stop-color="#ffd947"/><stop offset=".45" stop-color="#d98c0c"/><stop offset="1" stop-color="#6f3c08"/></linearGradient></defs><g stroke-linejoin="round" stroke-linecap="round"><rect x="76" y="12" width="8" height="139" rx="4" fill="#8c541d" stroke="#3d2109" stroke-width="3"/><circle cx="80" cy="12" r="9" fill="url(#gold)" stroke="#704006" stroke-width="2"/><path d="M84 20c17-4 29 0 42-4-7 11-20 17-42 13Z" fill="#10b8a9" stroke="#075b59" stroke-width="2"/><path d="M51 43q29-11 58 0l-5 44q-24-9-48 0Z" fill="url(#sail)" stroke="#075b59" stroke-width="3"/><path d="M47 84q33-10 66 0l-6 45q-27-10-54 0Z" fill="url(#sail)" stroke="#075b59" stroke-width="3"/><g stroke="#63350f" stroke-width="7"><path d="M46 42h68"/><path d="M42 83h76"/><path d="M40 128h80"/></g><g stroke="#efb72b" stroke-width="3"><path d="M46 41h68"/><path d="M42 82h76"/><path d="M40 127h80"/></g><g fill="url(#gold)" stroke="#744407" stroke-width="2"><circle cx="46" cy="42" r="6"/><circle cx="114" cy="42" r="6"/><circle cx="42" cy="83" r="6"/><circle cx="118" cy="83" r="6"/><circle cx="40" cy="128" r="6"/><circle cx="120" cy="128" r="6"/></g><path d="M91 68c-8-9-26-6-28 6-2 10 8 14 18 14 8 0 10 7 4 11-7 5-18 1-21-7-2 15 8 26 22 23 13-3 19-17 11-27-5-7-15-7-20-9-5-2-4-8 2-9 4-1 7 1 9 4l-5 3 11 2-1-12Z" fill="#f5efc0" stroke="#15756d" stroke-width="2"/><path d="M89 66l8-7-2 9 8-1-8 7Z" fill="#f5efc0"/><path d="M80 130c-24 1-37 12-42 29l15-5-7 16 21-8Z" fill="url(#gold)" stroke="#6f3c08" stroke-width="3"/><path d="M80 130c24 1 37 12 42 29l-15-5 7 16-21-8Z" fill="url(#gold)" stroke="#6f3c08" stroke-width="3"/><path d="M80 132c-18 4-29 16-27 31 2 16 15 26 27 34 12-8 25-18 27-34 2-15-9-27-27-31Z" fill="url(#dragon)" stroke="#623609" stroke-width="4"/><path d="M80 139l-14 11 6 4-10 12 13-3 5 20 5-20 13 3-10-12 6-4Z" fill="#13bcb1" stroke="#075b59" stroke-width="2"/><path d="M61 158l-13 8 8 3-10 8 17-4m36-15 13 8-8 3 10 8-17-4" fill="none" stroke="#16e5db" stroke-width="5"/><path d="M66 171l-12 11m40-11 12 11" stroke="#20f2e8" stroke-width="4"/><circle cx="71" cy="158" r="3" fill="#9dfff8"/><circle cx="89" cy="158" r="3" fill="#9dfff8"/></g></svg>