<svg xmlns="http://www.w3.org/2000/svg" viewBox="0 0 96 96"><g transform="translate(48 48)" fill="#345666" stroke="#071116" stroke-width="4"><polygon points="0,-44 -7,-25 7,-25"/><polygon points="0,-44 -7,-25 7,-25" transform="rotate(45)"/><polygon points="0,-44 -7,-25 7,-25" transform="rotate(90)"/><polygon points="0,-44 -7,-25 7,-25" transform="rotate(135)"/><polygon points="0,-44 -7,-25 7,-25" transform="rotate(180)"/><polygon points="0,-44 -7,-25 7,-25" transform="rotate(225)"/><polygon points="0,-44 -7,-25 7,-25" transform="rotate(270)"/><polygon points="0,-44 -7,-25 7,-25" transform="rotate(315)"/></g><circle cx="48" cy="48" r="28" fill="#20333d" stroke="#071116" stroke-width="4"/><path d="M18 35l10 4-7 7 11 3M68 23l-7 10 8 4-9 8M72 58l-10-2 5 9-10-1" fill="none" stroke="#45dfff" stroke-width="3" stroke-linecap="round"/><circle cx="48" cy="48" r="10" fill="#173d4a"/><circle cx="48" cy="48" r="6" fill="#52efff"/><circle cx="46" cy="46" r="2" fill="#eaffff"/></svg>